<?xml version="1.0" standalone="no"?>
<!DOCTYPE svg PUBLIC "-//W3C//DTD SVG 20010904//EN"
 "http://www.w3.org/TR/2001/REC-SVG-20010904/DTD/svg10.dtd">
<svg version="1.0" xmlns="http://www.w3.org/2000/svg"
 width="700.000000pt" height="700.000000pt" viewBox="0 0 700.000000 700.000000"
 preserveAspectRatio="xMidYMid meet">
<metadata>
Created by potrace 1.11, written by Peter Selinger 2001-2013
</metadata>
<g transform="translate(0.000000,700.000000) scale(0.100000,-0.100000)"
fill="#000000" stroke="none">
<path d="M3367 6814 c-1 -1 -49 -4 -107 -8 -324 -20 -675 -99 -985 -221 -172
-67 -399 -184 -550 -283 -587 -384 -1017 -909 -1268 -1547 -78 -199 -146 -440
-177 -635 -7 -41 -14 -82 -15 -90 -2 -8 -6 -42 -9 -75 -4 -33 -11 -94 -15
-135 -8 -79 -7 -470 2 -530 3 -19 9 -62 12 -95 9 -86 35 -241 50 -305 8 -30
17 -70 20 -88 9 -56 93 -317 136 -424 112 -282 267 -551 468 -812 102 -134
368 -400 516 -518 250 -198 544 -372 800 -474 63 -24 261 -96 276 -99 9 -2 47
-12 85 -23 114 -33 321 -76 414 -87 25 -3 56 -7 70 -10 108 -19 463 -26 645
-12 83 6 213 24 310 41 11 2 38 7 60 11 82 15 304 75 415 113 1029 351 1818
1202 2088 2252 28 108 50 207 57 254 2 12 8 53 14 91 5 39 13 99 16 135 3 36
8 81 11 100 6 40 6 393 0 460 -41 467 -139 826 -335 1220 -60 119 -202 360
-245 415 -9 11 -33 43 -54 72 -129 176 -307 366 -503 538 -84 74 -304 230
-418 299 -321 191 -625 313 -976 393 -56 12 -236 44 -280 49 -27 3 -61 7 -75
10 -59 9 -444 25 -453 18z m248 -389 c276 -40 588 -254 815 -560 25 -33 47
-62 50 -65 3 -3 22 -31 43 -62 20 -32 39 -58 42 -58 3 0 58 22 123 49 64 26
141 56 170 65 57 19 61 28 32 66 -11 14 -20 30 -20 37 0 6 -3 13 -7 15 -5 2
-37 46 -72 98 -36 52 -77 108 -93 125 -15 16 -25 31 -23 33 6 6 228 -113 320
-171 44 -28 124 -83 178 -123 107 -78 106 -72 22 -88 -85 -16 -362 -110 -493
-167 -487 -211 -978 -510 -1514 -921 -104 -80 -117 -87 -144 -79 -16 4 -51 7
-79 5 -172 -9 -299 -134 -312 -307 -5 -63 -8 -69 -47 -104 -200 -178 -519
-495 -671 -666 -33 -38 -71 -81 -85 -95 -14 -15 -45 -51 -70 -81 -25 -29 -51
-59 -57 -67 -10 -10 -4 -20 33 -53 62 -54 243 -191 252 -190 4 0 42 42 84 92
145 172 490 530 664 687 27 25 72 66 99 91 49 44 52 46 110 44 179 -6 330 136
339 319 1 14 57 63 188 162 660 495 1285 835 1763 955 139 35 335 51 375 29
21 -11 22 -16 17 -84 -10 -115 -60 -259 -155 -447 -36 -71 -51 -114 -48 -130
3 -13 12 -58 21 -99 19 -87 19 -87 40 -203 17 -101 16 -99 54 -127 l29 -20 68
107 c114 182 224 391 265 505 18 48 24 56 36 46 13 -11 117 -214 156 -304 54
-127 148 -427 163 -523 2 -14 9 -46 14 -71 11 -54 21 -132 37 -280 7 -70 7
-422 -1 -480 -2 -19 -5 -42 -5 -50 -1 -8 -19 20 -41 62 -36 70 -38 78 -28 114
14 51 4 148 -20 204 -44 101 -163 188 -263 192 -42 1 -49 7 -169 127 -167 169
-279 270 -258 235 3 -5 9 -47 13 -94 3 -47 8 -101 10 -120 2 -19 7 -102 10
-185 6 -116 11 -154 23 -168 12 -14 16 -41 17 -115 0 -85 3 -103 27 -147 50
-95 146 -166 242 -178 21 -3 42 -9 46 -14 16 -15 87 -167 108 -230 43 -123 54
-189 54 -305 0 -219 -113 -386 -343 -511 -63 -35 -232 -101 -280 -111 -13 -2
-67 -14 -119 -25 -164 -35 -288 -46 -510 -45 -171 0 -301 7 -430 23 -157 20
-180 24 -180 31 0 12 -73 81 -110 104 -85 54 -216 60 -308 15 l-52 -26 -83 24
c-557 160 -1115 417 -1573 723 -76 51 -143 97 -149 102 -5 4 -53 40 -105 80
-450 339 -796 747 -930 1095 -137 357 -79 626 175 803 121 84 281 147 486 194
22 5 30 17 49 73 18 54 71 187 127 322 8 17 -63 11 -220 -20 -145 -29 -144
-28 -173 -39 -15 -6 -29 -8 -32 -6 -5 6 108 126 187 200 25 22 52 48 60 56
118 111 386 296 562 386 125 65 145 72 116 42 -16 -17 -115 -152 -149 -203
-196 -298 -370 -697 -472 -1084 -14 -51 -27 -94 -28 -95 -2 -1 -16 -8 -33 -16
-46 -23 -124 -105 -145 -153 -53 -118 -29 -265 58 -359 20 -21 23 -33 18 -60
-3 -18 -8 -67 -12 -108 -3 -41 -8 -91 -10 -110 -2 -19 -7 -127 -10 -240 l-7
-205 81 -77 81 -77 25 27 c13 15 63 72 110 126 l86 99 1 101 c1 56 2 115 4
132 26 340 20 312 79 365 75 67 109 135 114 229 3 60 0 87 -18 133 -12 31 -29
64 -38 73 -14 14 -14 23 -3 73 43 195 140 466 248 689 130 269 323 543 491
696 25 22 54 49 63 58 26 25 168 122 219 150 105 56 241 103 335 114 28 4 51
8 53 9 5 5 166 -2 217 -10z m-2935 -2657 c72 -126 222 -346 259 -378 3 -3 38
-43 78 -90 85 -102 282 -295 413 -406 450 -382 1063 -734 1675 -965 128 -47
371 -128 466 -153 65 -18 67 -19 88 -68 27 -61 91 -126 156 -158 40 -19 66
-24 135 -24 73 -1 93 3 140 26 30 15 69 40 85 56 17 16 39 28 50 26 11 -2 60
-8 110 -14 49 -6 104 -13 121 -15 168 -23 601 -23 767 1 95 13 266 47 330 64
88 24 86 21 -87 -147 -143 -139 -321 -279 -483 -379 -100 -62 -294 -166 -300
-161 -1 2 29 46 68 98 72 96 146 210 212 331 l37 67 -152 1 c-84 1 -181 3
-215 5 l-62 4 -25 -44 c-47 -80 -171 -239 -256 -329 -266 -278 -543 -411 -840
-401 -135 4 -157 8 -267 45 -394 134 -747 523 -1006 1110 -51 115 -132 340
-156 435 -10 37 -20 46 -138 122 -71 45 -132 83 -138 84 -5 2 -35 -38 -66 -87
l-56 -89 24 -90 c111 -417 324 -869 555 -1173 l78 -102 -127 66 c-133 68 -316
184 -416 262 l-59 46 92 22 c50 12 93 24 95 26 2 2 -21 52 -51 112 -30 60 -67
137 -81 170 -14 34 -26 62 -27 63 -1 2 -18 -2 -37 -7 -34 -10 -49 -13 -144
-28 -70 -11 -202 -7 -220 8 -32 26 2 201 71 367 50 122 101 220 194 373 l82
135 -28 20 c-22 16 -193 150 -253 198 -16 13 -28 -1 -121 -153 -78 -124 -155
-273 -214 -411 l-44 -100 -71 140 c-119 237 -218 520 -255 731 -3 19 -8 44
-10 55 -2 11 -9 52 -14 90 -6 39 -14 88 -18 110 -12 81 -12 595 1 595 1 0 26
-42 55 -92z"/>
<path d="M2425 5534 c-13 -13 -130 -246 -159 -316 -15 -37 -14 -38 7 -39 69
-3 176 -12 267 -24 19 -2 55 -7 80 -10 103 -13 244 -39 381 -70 157 -36 358
-91 366 -99 3 -3 44 22 92 56 47 33 134 92 194 131 59 39 107 73 107 77 0 16
-561 182 -725 214 -11 2 -69 13 -130 25 -102 19 -126 23 -202 35 -16 3 -55 8
-88 11 -33 4 -86 10 -118 14 -43 6 -62 5 -72 -5z"/>
<path d="M5040 5236 c-154 -58 -210 -83 -210 -94 0 -5 22 -76 50 -158 42 -129
95 -319 115 -419 10 -48 33 -176 39 -219 4 -21 8 -41 10 -45 2 -3 7 -33 10
-66 3 -33 8 -78 11 -100 19 -137 30 -345 30 -565 -1 -190 -10 -428 -20 -475
-2 -11 -7 -47 -10 -80 -3 -33 -7 -69 -9 -80 -2 -11 -7 -42 -10 -70 -4 -27 -10
-66 -13 -85 -20 -143 -93 -440 -147 -600 -20 -58 -36 -107 -36 -109 0 -7 254
8 331 20 l76 11 28 97 c29 103 34 122 36 133 0 4 5 22 10 40 6 18 12 44 15 57
3 12 11 51 19 85 14 62 17 74 34 174 9 54 14 83 26 170 3 20 8 48 10 62 3 14
7 57 10 95 3 39 8 86 10 105 23 180 23 760 1 900 -2 14 -7 61 -11 105 -4 44
-8 87 -10 95 -1 8 -5 40 -10 70 -4 30 -9 64 -11 75 -2 10 -6 37 -9 60 -12 80
-56 290 -86 404 -44 168 -140 451 -153 451 -6 -1 -63 -20 -126 -44z"/>
<path d="M4260 4844 c-96 -58 -181 -110 -188 -116 -9 -8 29 -31 145 -88 87
-42 216 -110 287 -151 200 -115 192 -110 343 -211 111 -74 104 -76 89 22 -12
74 -45 239 -68 337 l-22 91 -95 55 c-116 67 -302 167 -311 167 -3 0 -84 -48
-180 -106z"/>
<path d="M4889 4037 c-276 -325 -642 -690 -1004 -998 -169 -144 -423 -344
-590 -464 -60 -43 -125 -90 -144 -103 l-34 -25 24 -12 c13 -7 107 -43 209 -80
158 -57 188 -65 205 -54 23 14 258 190 265 198 3 3 34 28 70 56 36 27 67 52
70 55 3 3 17 15 32 26 15 12 53 43 84 70 32 27 78 66 103 88 202 171 567 521
746 714 l68 74 -7 176 c-3 98 -8 187 -10 200 -3 13 -6 43 -7 67 -2 27 -9 46
-20 53 -14 9 -24 2 -60 -41z"/>
<path d="M2382 2010 c-63 -32 -116 -61 -119 -63 -5 -6 111 -249 144 -305 l19
-31 95 47 c151 77 376 202 388 216 9 11 0 18 -46 37 -32 12 -125 53 -207 91
-82 37 -152 68 -155 67 -3 0 -57 -27 -119 -59z"/>
</g>
</svg>
